<svg xmlns="http://www.w3.org/2000/svg" width="338" height="340"><g><path d="M1.079 1.786h336.913v337.67H1.08z" stroke="#000" stroke-width="2" fill="none"/><path d="M278.734 36.554c0-8.376 6.966-15.165 15.56-15.165 4.126 0 8.084 1.597 11.001 4.441 2.918 2.844 4.558 6.702 4.558 10.724 0 8.376-6.966 15.165-15.56 15.165-8.593 0-15.559-6.79-15.559-15.165z" stroke="#000" stroke-width="2" fill="none"/></g><path vector-effect="non-scaling-stroke" stroke="#000" fill="none" d="M298.21 136.1l24 40.8h-48zM299.25 249.54l-24-40.8h48z"/><path vector-effect="non-scaling-stroke" stroke="#000" fill="none" d="M-50-50V50H50V-50z" transform="matrix(1.33 0 0 .42 131.01 39.5)"/><path vector-effect="non-scaling-stroke" stroke="#000" fill="none" d="M33.5 82v227h227V82z"/><path vector-effect="non-scaling-stroke" stroke="#000" fill="none" d="M-50-50V50H50V-50z" transform="matrix(2.04 0 0 .51 147.5 116)"/><g><text font-family="'Lucida Console', Monaco, monospace" font-size="18" style="white-space:pre" stroke-width="0" transform="matrix(1.19 0 0 1.19 137.58 38.08)"><tspan x="-47.5" y="5.65">Purchase</tspan></text></g><g><text font-family="'Lucida Console', Monaco, monospace" font-size="18" style="white-space:pre" transform="matrix(1 0 0 1.37 148.5 113.67)"><tspan x="-98" y="5.65">[ Property Title ]</tspan></text></g></svg>