<?xml version="1.0" encoding="UTF-8" standalone="no" ?>
<!DOCTYPE svg PUBLIC "-//W3C//DTD SVG 1.1//EN" "http://www.w3.org/Graphics/SVG/1.1/DTD/svg11.dtd">
<svg xmlns="http://www.w3.org/2000/svg" xmlns:xlink="http://www.w3.org/1999/xlink" version="1.1" width="338" height="340" viewBox="0 0 338 340" xml:space="preserve">
<desc>Created with Fabric.js 3.6.3</desc>
<defs>
</defs>
<g transform="matrix(1 0 0 1 170 170)"  >
<g style=""   >
		<g transform="matrix(1 0 0 1 -0.46 0.62)"  >
<path style="stroke: rgb(0,0,0); stroke-width: 2; stroke-dasharray: none; stroke-linecap: butt; stroke-dashoffset: 0; stroke-linejoin: miter; stroke-miterlimit: 4; fill: none; fill-rule: nonzero; opacity: 1;"  transform=" translate(-173.54, -174.61)" d="M 5.079 5.776 h 336.913 v 337.67 H 5.08 z" stroke-linecap="round" />
</g>
		<g transform="matrix(1 0 0 1 124.29 -133.45)"  >
<path style="stroke: rgb(0,0,0); stroke-width: 2; stroke-dasharray: none; stroke-linecap: butt; stroke-dashoffset: 0; stroke-linejoin: miter; stroke-miterlimit: 4; fill: none; fill-rule: nonzero; opacity: 1;"  transform=" translate(-298.29, -40.55)" d="M 282.734 40.554 c 0 -8.376 6.966 -15.165 15.56 -15.165 c 4.126 0 8.084 1.597 11.001 4.441 c 2.918 2.844 4.558 6.702 4.558 10.724 c 0 8.376 -6.966 15.165 -15.56 15.165 c -8.593 0 -15.559 -6.79 -15.559 -15.165 z" stroke-linecap="round" />
</g>
</g>
</g>
<g transform="matrix(0.48 0 0 0.48 298.21 156.5)"  >
<polygon style="stroke: rgb(0,0,0); stroke-width: 1; stroke-dasharray: ; stroke-linecap: butt; stroke-dashoffset: 0; stroke-linejoin: miter; stroke-miterlimit: 4; fill: none; fill-rule: nonzero; opacity: 1;" vector-effect="non-scaling-stroke"  points="0,-42.5 50,42.5 -50,42.5 " />
</g>
<g transform="matrix(-0.48 0 0 -0.48 299.25 229.14)"  >
<polygon style="stroke: rgb(0,0,0); stroke-width: 1; stroke-dasharray: ; stroke-linecap: butt; stroke-dashoffset: 0; stroke-linejoin: miter; stroke-miterlimit: 4; fill: none; fill-rule: nonzero; opacity: 1;" vector-effect="non-scaling-stroke"  points="0,-42.5 50,42.5 -50,42.5 " />
</g>
<g transform="matrix(1.33 0 0 0.42 131.01 39.5)"  >
<polygon style="stroke: rgb(0,0,0); stroke-width: 1; stroke-dasharray: ; stroke-linecap: butt; stroke-dashoffset: 0; stroke-linejoin: miter; stroke-miterlimit: 4; fill: none; fill-rule: nonzero; opacity: 1;" vector-effect="non-scaling-stroke"  points="-50,-50 -50,50 50,50 50,-50 " />
</g>
<g transform="matrix(2.27 0 0 2.27 147 195.5)"  >
<polygon style="stroke: rgb(0,0,0); stroke-width: 1; stroke-dasharray: ; stroke-linecap: butt; stroke-dashoffset: 0; stroke-linejoin: miter; stroke-miterlimit: 4; fill: none; fill-rule: nonzero; opacity: 1;" vector-effect="non-scaling-stroke"  points="-50,-50 -50,50 50,50 50,-50 " />
</g>
<g transform="matrix(2.04 0 0 0.51 147.5 116)"  >
<polygon style="stroke: rgb(0,0,0); stroke-width: 1; stroke-dasharray: ; stroke-linecap: butt; stroke-dashoffset: 0; stroke-linejoin: miter; stroke-miterlimit: 4; fill: none; fill-rule: nonzero; opacity: 1;" vector-effect="non-scaling-stroke"  points="-50,-50 -50,50 50,50 50,-50 " />
</g>
</svg>